<svg xmlns="http://www.w3.org/2000/svg" version="1.1" xmlns:xlink="http://www.w3.org/1999/xlink" xmlns:svgjs="http://svgjs.com/svgjs" width="1000" height="1000"><rect width="1000" height="1000" rx="400" ry="400" fill="#ffffff"></rect><g transform="matrix(2,0,0,2,100,100)"><svg xmlns="http://www.w3.org/2000/svg" version="1.1" xmlns:xlink="http://www.w3.org/1999/xlink" xmlns:svgjs="http://svgjs.com/svgjs" width="400" height="400"><svg id="svg" version="1.1" xmlns="http://www.w3.org/2000/svg" xmlns:xlink="http://www.w3.org/1999/xlink" width="400" height="400" viewBox="0, 0, 400,400"><g id="svgg"><path id="path0" d="M197.800 0.621 C 196.719 1.135,189.558 3.962,173.400 10.255 C 170.320 11.455,162.040 14.702,155.000 17.471 C 147.960 20.240,139.230 23.668,135.600 25.089 C 131.970 26.510,127.470 28.272,125.600 29.006 C 123.730 29.740,117.610 32.135,112.000 34.329 C 106.390 36.524,98.740 39.524,95.000 40.996 C 86.712 44.259,85.467 44.747,65.400 52.607 C 42.049 61.754,38.768 63.041,32.800 65.395 C 16.717 71.737,12.526 73.335,11.800 73.397 C 11.002 73.466,11.000 73.756,11.000 191.978 L 11.000 310.489 19.800 314.677 C 24.640 316.980,34.450 321.621,41.600 324.990 C 48.750 328.359,56.580 332.051,59.000 333.195 C 61.420 334.339,71.410 339.059,81.200 343.685 C 90.990 348.310,109.260 356.959,121.800 362.905 C 134.340 368.852,150.990 376.724,158.800 380.399 C 166.610 384.075,178.991 389.920,186.314 393.388 L 199.629 399.694 202.314 398.489 C 204.325 397.586,251.217 375.460,269.000 367.022 C 289.565 357.265,297.389 353.564,305.400 349.801 C 310.680 347.320,323.820 341.106,334.600 335.991 C 352.151 327.664,363.496 322.303,371.200 318.698 C 372.630 318.029,376.950 315.988,380.800 314.163 L 387.800 310.845 387.901 192.745 C 387.975 105.272,388.119 74.574,388.455 74.366 C 389.109 73.962,388.970 73.902,372.800 67.616 C 364.770 64.494,355.950 61.060,353.200 59.985 C 347.115 57.605,329.180 50.620,294.200 37.005 C 279.680 31.354,266.270 26.129,264.400 25.394 C 262.530 24.660,255.150 21.784,248.000 19.004 C 240.850 16.223,233.920 13.526,232.600 13.010 C 231.280 12.494,228.580 11.445,226.600 10.679 C 224.620 9.913,217.634 7.197,211.075 4.643 C 204.516 2.089,199.116 0.012,199.075 0.026 C 199.034 0.040,198.460 0.308,197.800 0.621 M213.861 17.436 C 221.527 20.426,232.570 24.725,238.400 26.990 C 244.230 29.254,254.400 33.214,261.000 35.790 C 267.600 38.365,280.380 43.343,289.400 46.853 C 298.420 50.362,307.420 53.876,309.400 54.662 C 311.380 55.447,323.696 60.255,336.769 65.345 C 349.842 70.435,360.589 74.780,360.652 75.000 C 360.715 75.220,351.369 79.801,339.884 85.179 C 328.398 90.558,316.584 96.103,313.631 97.502 L 308.262 100.045 305.831 98.970 C 303.165 97.791,299.426 96.146,280.000 87.601 C 272.850 84.456,264.840 80.937,262.200 79.780 C 259.560 78.623,254.970 76.605,252.000 75.295 C 249.030 73.986,240.750 70.342,233.600 67.197 C 226.450 64.052,218.170 60.410,215.200 59.103 C 212.230 57.797,207.820 55.864,205.400 54.807 C 202.980 53.750,197.040 51.138,192.200 49.002 C 187.360 46.866,181.420 44.256,179.000 43.203 C 155.663 33.041,150.985 30.861,151.800 30.526 C 159.388 27.406,198.796 12.045,199.261 12.026 C 199.624 12.012,206.194 14.446,213.861 17.436 M110.761 52.962 C 123.917 58.908,138.837 65.637,145.000 68.403 C 148.300 69.885,164.680 77.264,181.400 84.802 C 198.120 92.340,213.510 99.269,215.600 100.201 C 223.345 103.654,252.743 116.922,256.871 118.828 C 259.220 119.913,261.335 120.800,261.571 120.800 C 262.704 120.800,261.792 121.991,260.100 122.721 C 259.055 123.171,256.490 124.344,254.400 125.328 C 243.420 130.495,223.007 140.082,214.200 144.208 C 208.700 146.785,203.143 149.426,201.850 150.077 L 199.500 151.262 179.250 141.664 C 168.113 136.385,157.290 131.261,155.200 130.277 C 153.110 129.293,147.890 126.824,143.600 124.791 C 133.306 119.911,132.047 119.315,102.000 105.095 C 87.810 98.380,68.910 89.423,60.000 85.191 C 51.090 80.959,42.639 76.961,41.221 76.308 C 38.930 75.253,38.729 75.072,39.421 74.683 C 40.333 74.172,102.427 49.699,102.961 49.640 C 103.160 49.618,106.670 51.113,110.761 52.962 M33.512 95.853 C 39.390 98.633,45.640 101.580,47.400 102.403 C 49.160 103.225,52.130 104.625,54.000 105.512 C 65.206 110.829,93.704 124.313,106.600 130.400 C 122.155 137.742,138.350 145.408,148.000 149.997 C 158.916 155.189,162.896 157.065,165.400 158.197 C 167.684 159.230,172.559 161.542,181.900 166.023 L 188.400 169.141 188.400 275.570 C 188.400 334.107,188.250 382.000,188.068 382.000 C 187.741 382.000,184.109 380.294,154.000 366.003 C 145.750 362.088,137.560 358.212,135.800 357.391 C 131.529 355.400,94.715 338.002,62.800 322.893 C 48.610 316.175,33.760 309.169,29.800 307.323 C 25.840 305.478,22.375 303.671,22.100 303.307 C 21.266 302.206,21.377 90.800,22.212 90.800 C 22.548 90.800,27.633 93.074,33.512 95.853 M376.501 304.015 C 376.257 304.222,354.231 314.666,332.000 325.114 C 329.690 326.199,316.190 332.580,302.000 339.294 C 259.584 359.361,225.593 375.429,222.400 376.921 C 220.750 377.692,217.440 379.240,215.044 380.361 C 212.649 381.483,210.624 382.400,210.544 382.400 C 210.083 382.400,210.438 169.668,210.900 169.302 C 211.346 168.950,221.931 163.918,266.570 142.838 C 273.594 139.521,279.416 136.883,279.509 136.975 C 279.601 137.068,279.461 153.638,279.198 173.798 C 278.935 193.958,278.807 210.540,278.915 210.648 C 279.022 210.756,288.041 206.380,298.955 200.924 L 318.800 191.004 318.800 154.585 L 318.800 118.167 333.500 111.218 C 341.585 107.396,350.970 102.948,354.356 101.335 C 357.742 99.721,360.559 98.400,360.616 98.400 C 360.673 98.400,363.663 97.002,367.260 95.294 C 370.857 93.585,374.430 91.901,375.200 91.550 L 376.600 90.914 376.701 197.336 C 376.756 255.868,376.666 303.874,376.501 304.015 " stroke="none" fill="#050505" fill-rule="evenodd"></path><path id="path1" d="M0.000 200.000 L 0.000 400.000 99.667 400.000 C 154.483 400.000,199.229 399.896,199.102 399.768 C 198.974 399.641,194.309 397.389,188.735 394.764 C 183.161 392.139,178.311 389.827,177.958 389.628 C 177.605 389.429,175.175 388.283,172.558 387.083 C 169.941 385.882,160.330 381.345,151.200 377.001 C 142.070 372.657,130.460 367.165,125.400 364.796 C 120.340 362.427,113.169 359.029,109.464 357.245 C 105.760 355.460,102.674 354.000,102.608 354.000 C 102.541 354.000,98.372 352.042,93.344 349.649 C 84.413 345.400,72.203 339.630,67.400 337.388 C 66.080 336.772,58.970 333.412,51.600 329.920 C 44.230 326.428,32.035 320.654,24.500 317.088 L 10.800 310.604 10.800 191.902 C 10.800 73.608,10.803 73.200,11.597 73.200 C 12.036 73.200,14.871 72.228,17.897 71.040 C 20.924 69.852,31.050 65.881,40.400 62.215 C 87.056 43.922,106.734 36.201,110.800 34.592 C 125.061 28.951,134.247 25.349,136.800 24.397 C 139.448 23.411,143.161 21.956,161.800 14.603 C 171.403 10.815,191.223 3.037,195.000 1.574 L 199.000 0.025 99.500 0.012 L 0.000 0.000 0.000 200.000 M200.033 0.146 C 200.125 0.227,201.910 0.934,204.000 1.718 C 206.090 2.502,209.150 3.676,210.800 4.327 C 212.450 4.978,216.140 6.415,219.000 7.521 C 226.619 10.466,237.855 14.845,243.800 17.187 C 246.660 18.314,252.690 20.659,257.200 22.400 C 261.710 24.141,267.740 26.482,270.600 27.603 C 278.690 30.775,289.704 35.065,295.200 37.185 C 305.341 41.097,326.302 49.263,329.600 50.587 C 331.470 51.338,334.620 52.580,336.600 53.348 C 338.580 54.116,349.740 58.462,361.400 63.005 C 373.060 67.549,384.085 71.816,385.900 72.487 C 389.197 73.706,389.729 74.111,388.600 74.545 C 388.069 74.749,388.000 88.272,388.000 192.927 L 388.000 311.079 386.500 311.699 C 385.675 312.040,379.600 314.876,373.000 318.002 C 366.400 321.128,352.810 327.563,342.800 332.302 C 332.790 337.042,322.350 341.989,319.600 343.296 C 316.850 344.603,311.900 346.940,308.600 348.491 C 305.300 350.041,290.900 356.849,276.600 363.619 C 262.300 370.389,248.890 376.735,246.800 377.721 C 211.968 394.155,200.172 399.738,200.033 399.857 C 199.942 399.936,244.897 400.000,299.933 400.000 L 400.000 400.000 400.000 200.000 L 400.000 0.000 299.933 0.000 C 244.897 0.000,199.942 0.066,200.033 0.146 M196.200 13.201 C 194.660 13.830,189.620 15.823,185.000 17.631 C 151.250 30.838,152.003 30.536,152.001 30.847 C 152.000 31.075,155.452 32.650,169.000 38.598 C 171.860 39.854,177.800 42.467,182.200 44.405 C 186.600 46.343,192.540 48.952,195.400 50.203 C 198.260 51.454,201.950 53.075,203.600 53.805 C 212.022 57.531,229.010 65.007,238.600 69.208 C 244.540 71.811,262.524 79.713,278.565 86.770 C 294.606 93.826,307.945 99.600,308.206 99.600 C 308.468 99.600,310.554 98.720,312.841 97.645 C 315.128 96.570,326.270 91.326,337.600 85.992 C 348.930 80.658,358.804 76.037,359.543 75.723 C 361.288 74.983,362.764 75.687,344.579 68.581 C 335.791 65.147,327.070 61.736,325.200 61.002 C 322.244 59.841,305.032 53.132,294.200 48.918 C 292.220 48.148,289.070 46.919,287.200 46.186 C 285.330 45.453,274.800 41.351,263.800 37.070 C 231.384 24.455,206.023 14.565,202.690 13.238 C 199.027 11.780,199.676 11.784,196.200 13.201 M200.400 13.130 C 200.400 13.312,202.425 14.152,204.900 14.998 C 207.375 15.843,210.210 16.940,211.200 17.434 C 212.190 17.929,214.693 18.890,216.763 19.570 C 218.833 20.250,220.723 20.966,220.963 21.162 C 221.203 21.357,222.930 22.056,224.800 22.715 C 226.670 23.374,229.256 24.398,230.547 24.990 C 231.838 25.582,233.638 26.311,234.547 26.609 C 238.224 27.815,240.938 28.814,241.357 29.116 C 241.908 29.514,245.311 30.826,249.000 32.062 C 250.540 32.578,251.900 33.134,252.022 33.297 C 252.144 33.461,254.124 34.245,256.422 35.040 C 258.720 35.836,261.050 36.739,261.600 37.048 C 262.567 37.591,267.932 39.619,270.800 40.525 C 271.570 40.769,272.290 41.093,272.400 41.245 C 272.590 41.509,274.354 42.183,279.800 44.073 C 281.120 44.531,282.399 45.063,282.643 45.255 C 283.070 45.591,288.634 47.715,290.906 48.410 C 291.514 48.595,292.954 49.188,294.106 49.726 C 295.258 50.264,297.640 51.195,299.400 51.793 C 301.160 52.392,302.792 53.038,303.027 53.229 C 303.261 53.420,304.701 54.009,306.227 54.537 C 307.752 55.065,309.900 55.810,311.000 56.192 C 312.100 56.574,313.194 57.043,313.430 57.235 C 313.667 57.426,315.574 58.194,317.668 58.943 C 319.762 59.691,322.088 60.584,322.838 60.927 C 324.819 61.834,330.539 63.996,330.961 63.998 C 331.160 63.999,332.420 64.516,333.761 65.147 C 335.103 65.778,337.910 66.889,340.000 67.617 C 342.090 68.344,343.890 69.058,344.000 69.204 C 344.110 69.350,345.910 70.049,348.000 70.759 C 350.090 71.469,352.778 72.510,353.973 73.071 C 355.168 73.633,356.788 74.318,357.573 74.593 L 359.000 75.095 356.600 76.188 C 354.309 77.232,352.622 78.027,344.000 82.128 C 337.937 85.011,333.185 87.238,330.600 88.407 C 329.280 89.005,326.400 90.347,324.200 91.391 C 322.000 92.435,318.130 94.260,315.600 95.448 C 313.070 96.635,310.333 97.946,309.519 98.360 C 308.704 98.774,307.984 98.998,307.919 98.856 C 307.853 98.715,306.270 97.983,304.400 97.228 C 302.530 96.474,299.340 95.079,297.310 94.128 C 295.281 93.178,293.448 92.400,293.237 92.400 C 293.027 92.400,291.248 91.590,289.285 90.600 C 287.322 89.610,285.506 88.800,285.249 88.800 C 284.993 88.800,283.301 88.101,281.491 87.246 C 279.681 86.392,277.300 85.318,276.200 84.860 C 272.682 83.395,271.414 82.825,270.800 82.434 C 270.470 82.224,268.490 81.374,266.400 80.546 C 264.310 79.718,262.240 78.820,261.800 78.549 C 261.360 78.278,259.560 77.491,257.800 76.800 C 256.040 76.109,254.216 75.296,253.747 74.993 C 252.900 74.447,246.533 71.765,245.000 71.308 C 244.560 71.177,244.110 70.942,244.000 70.785 C 243.890 70.628,242.360 69.914,240.600 69.199 C 238.840 68.484,235.732 67.112,233.693 66.149 C 231.654 65.187,229.795 64.400,229.561 64.400 C 229.327 64.400,227.900 63.780,226.390 63.023 C 224.881 62.265,222.247 61.085,220.537 60.400 C 218.827 59.716,217.242 59.005,217.014 58.822 C 216.512 58.418,208.685 55.200,208.204 55.200 C 208.017 55.200,207.579 54.957,207.231 54.659 C 206.884 54.362,205.160 53.538,203.400 52.829 C 201.640 52.119,198.733 50.832,196.939 49.969 C 195.146 49.106,193.485 48.400,193.249 48.400 C 193.014 48.400,191.393 47.680,189.648 46.800 C 187.903 45.920,186.281 45.200,186.044 45.200 C 185.807 45.200,184.126 44.504,182.307 43.653 C 180.488 42.802,177.920 41.644,176.600 41.079 C 175.280 40.515,172.760 39.389,171.000 38.578 C 169.240 37.767,166.711 36.690,165.379 36.185 C 164.048 35.680,162.338 34.906,161.579 34.466 C 160.821 34.025,158.676 33.082,156.812 32.370 L 153.425 31.074 154.812 30.466 C 155.576 30.132,156.740 29.602,157.400 29.289 C 158.935 28.561,164.576 26.448,166.400 25.918 C 167.170 25.694,167.890 25.390,168.000 25.242 C 168.187 24.991,171.132 23.828,175.800 22.161 C 176.900 21.769,178.171 21.213,178.624 20.927 C 179.077 20.641,180.247 20.153,181.224 19.841 C 184.389 18.832,187.795 17.530,188.000 17.250 C 188.110 17.100,189.730 16.460,191.600 15.828 C 193.470 15.197,195.810 14.282,196.800 13.795 C 198.667 12.877,200.400 12.557,200.400 13.130 M97.200 52.047 C 85.830 56.556,59.604 66.854,49.800 70.659 C 43.091 73.262,39.200 74.874,39.200 75.048 C 39.200 75.118,40.505 75.787,42.100 76.535 C 43.695 77.283,50.400 80.458,57.000 83.591 C 63.600 86.724,70.260 89.877,71.800 90.597 C 75.823 92.481,94.334 101.245,117.200 112.093 C 128.090 117.259,138.080 121.992,139.400 122.610 C 140.720 123.227,154.658 129.823,170.372 137.266 C 186.087 144.710,199.158 150.800,199.420 150.800 C 199.681 150.800,205.972 147.920,213.400 144.400 C 220.828 140.880,226.958 138.000,227.022 138.000 C 227.087 138.000,232.509 135.460,239.070 132.355 C 255.694 124.488,257.511 123.636,259.961 122.549 C 261.150 122.021,262.035 121.501,261.927 121.393 C 261.744 121.210,257.284 119.162,247.900 114.950 C 238.124 110.563,235.334 109.306,221.800 103.197 C 213.880 99.622,205.690 95.933,203.600 94.999 C 201.510 94.064,194.130 90.736,187.200 87.602 C 180.270 84.468,172.080 80.780,169.000 79.406 C 165.920 78.032,157.730 74.341,150.800 71.205 C 137.294 65.091,133.843 63.538,124.800 59.504 C 121.610 58.082,115.566 55.361,111.369 53.459 C 102.466 49.424,103.543 49.531,97.200 52.047 M105.051 51.420 C 105.903 51.761,108.240 52.841,110.244 53.820 C 112.249 54.799,114.124 55.600,114.412 55.600 C 114.700 55.600,115.897 56.143,117.072 56.806 C 118.247 57.469,120.602 58.562,122.304 59.234 C 124.007 59.907,125.799 60.714,126.287 61.029 C 126.775 61.344,128.125 61.972,129.287 62.425 C 130.449 62.878,132.660 63.844,134.200 64.570 C 138.944 66.809,142.643 68.400,143.103 68.400 C 143.345 68.400,143.806 68.663,144.128 68.985 C 144.671 69.529,146.700 70.433,150.600 71.872 C 151.480 72.196,152.740 72.794,153.400 73.201 C 154.060 73.607,156.205 74.586,158.167 75.377 C 160.129 76.167,161.929 76.971,162.167 77.163 C 162.405 77.355,164.390 78.270,166.578 79.198 C 168.766 80.125,170.926 81.116,171.378 81.401 C 171.830 81.685,173.910 82.601,176.000 83.436 C 178.090 84.271,180.038 85.189,180.329 85.477 C 180.619 85.765,181.055 86.000,181.297 86.000 C 181.774 86.000,185.332 87.543,191.000 90.208 C 192.980 91.139,195.050 92.033,195.600 92.196 C 196.150 92.358,197.140 92.812,197.800 93.205 C 198.460 93.597,200.530 94.549,202.400 95.320 C 204.270 96.092,206.610 97.188,207.600 97.756 C 208.590 98.325,209.635 98.793,209.923 98.795 C 210.210 98.798,212.100 99.596,214.123 100.569 C 219.243 103.031,222.410 104.400,222.987 104.400 C 223.257 104.400,223.893 104.760,224.400 105.200 C 224.907 105.640,225.490 106.000,225.694 106.000 C 226.128 106.000,231.084 108.109,233.378 109.270 C 234.246 109.709,236.406 110.671,238.178 111.408 C 239.950 112.145,242.390 113.296,243.600 113.967 C 244.810 114.637,246.051 115.189,246.358 115.193 C 246.665 115.197,248.465 115.975,250.358 116.923 C 252.251 117.870,255.193 119.175,256.895 119.823 C 261.181 121.453,262.975 120.204,242.400 129.912 C 240.530 130.795,236.902 132.525,234.338 133.758 C 231.773 134.991,229.565 136.000,229.430 136.000 C 229.295 136.000,227.343 136.881,225.092 137.958 C 217.973 141.363,213.077 143.675,210.600 144.801 C 209.280 145.401,206.300 146.807,203.978 147.926 L 199.755 149.960 197.978 149.349 C 197.000 149.012,194.670 147.957,192.800 147.003 C 190.930 146.048,188.230 144.758,186.800 144.134 C 185.370 143.510,183.962 142.775,183.671 142.500 C 183.381 142.225,182.953 142.000,182.722 142.000 C 182.118 142.000,175.915 139.192,175.200 138.595 C 174.870 138.320,174.150 137.960,173.600 137.795 C 172.698 137.525,170.346 136.429,158.100 130.570 C 153.819 128.522,148.527 126.011,143.400 123.596 C 135.382 119.818,129.594 117.073,125.800 115.248 C 117.563 111.287,114.117 109.658,111.200 108.348 C 109.550 107.606,107.962 106.775,107.671 106.500 C 107.381 106.225,106.911 106.000,106.627 106.000 C 105.912 106.000,99.288 102.866,98.993 102.388 C 98.861 102.175,98.500 102.000,98.192 102.000 C 97.884 102.000,94.969 100.721,91.716 99.158 C 88.462 97.595,84.540 95.724,83.000 95.000 C 81.460 94.276,78.310 92.785,76.000 91.686 C 73.690 90.587,70.180 88.929,68.200 88.003 C 64.571 86.305,57.640 82.999,51.000 79.799 C 49.020 78.844,45.960 77.399,44.200 76.587 C 42.286 75.704,41.241 75.027,41.600 74.902 C 41.930 74.787,43.285 74.192,44.612 73.580 C 46.986 72.484,51.752 70.696,54.300 69.945 C 55.015 69.735,55.600 69.412,55.600 69.228 C 55.600 69.044,56.005 68.800,56.500 68.686 C 57.792 68.388,63.484 66.271,65.600 65.300 C 67.271 64.534,69.529 63.674,74.000 62.105 C 74.990 61.757,75.890 61.350,76.000 61.201 C 76.110 61.052,76.560 60.828,77.000 60.704 C 78.447 60.296,84.165 58.130,86.000 57.294 C 87.680 56.529,90.067 55.631,94.400 54.135 C 95.390 53.793,96.402 53.350,96.648 53.151 C 98.577 51.591,103.134 50.653,105.051 51.420 M22.000 197.132 L 22.000 303.464 25.100 304.880 C 26.805 305.659,38.820 311.333,51.800 317.489 C 64.780 323.646,85.004 333.221,96.741 338.768 C 124.569 351.918,123.588 351.455,135.600 357.097 C 137.470 357.975,146.290 362.159,155.200 366.394 C 164.110 370.630,172.390 374.549,173.600 375.105 C 174.810 375.660,178.533 377.420,181.874 379.017 C 185.214 380.613,188.049 381.817,188.174 381.693 C 188.298 381.568,188.400 333.810,188.400 275.562 C 188.400 163.380,188.474 168.400,186.812 168.400 C 186.631 168.400,184.439 167.430,181.941 166.244 C 170.596 160.859,115.939 135.001,110.200 132.304 C 106.680 130.650,94.980 125.118,84.200 120.009 C 73.420 114.901,63.160 110.042,61.400 109.212 C 59.640 108.381,50.159 103.899,40.331 99.251 C 30.503 94.603,22.358 90.800,22.231 90.800 C 22.104 90.800,22.000 138.649,22.000 197.132 M361.800 98.029 C 353.880 101.776,345.690 105.648,343.600 106.634 C 341.510 107.620,335.120 110.637,329.400 113.340 L 319.000 118.254 319.130 154.627 L 319.261 191.000 299.429 200.900 C 288.522 206.345,279.310 210.800,278.958 210.800 C 278.392 210.800,278.345 210.189,278.553 205.500 C 278.682 202.585,278.882 188.950,278.998 175.200 C 279.113 161.450,279.317 147.275,279.452 143.700 C 279.606 139.618,279.553 137.200,279.311 137.200 C 279.098 137.200,269.762 141.539,258.562 146.842 C 247.363 152.145,237.120 156.984,235.800 157.594 C 223.967 163.068,210.945 169.372,210.706 169.743 C 210.262 170.434,210.328 381.509,210.773 381.783 C 210.978 381.910,214.443 380.458,218.473 378.558 C 227.199 374.441,231.619 372.363,235.400 370.598 C 236.940 369.879,248.730 364.301,261.600 358.202 C 274.470 352.104,287.610 345.894,290.800 344.403 C 297.615 341.217,307.100 336.730,324.200 328.603 C 331.020 325.361,337.860 322.121,339.400 321.401 C 345.258 318.663,348.477 317.148,357.400 312.926 C 362.460 310.531,368.891 307.499,371.692 306.186 L 376.784 303.800 376.792 197.500 C 376.796 139.035,376.665 91.204,376.500 91.208 C 376.335 91.212,369.720 94.282,361.800 98.029 M35.000 97.620 C 37.420 98.748,41.065 100.465,43.100 101.436 C 45.135 102.406,48.465 103.991,50.500 104.957 C 52.535 105.923,56.090 107.625,58.400 108.738 C 60.710 109.851,63.770 111.258,65.200 111.865 C 66.630 112.472,67.890 113.091,68.000 113.241 C 68.110 113.392,70.000 114.280,72.200 115.215 C 74.400 116.151,76.290 117.050,76.400 117.213 C 76.510 117.376,77.770 117.993,79.200 118.583 C 80.630 119.174,83.600 120.520,85.800 121.576 C 88.000 122.631,91.240 124.169,93.000 124.993 C 96.018 126.406,101.612 129.070,109.800 132.992 C 111.780 133.941,115.110 135.521,117.200 136.503 C 119.290 137.486,122.710 139.100,124.800 140.091 C 131.811 143.415,136.975 145.844,140.400 147.428 C 142.270 148.292,144.038 149.225,144.329 149.500 C 144.619 149.775,145.096 150.000,145.387 150.000 C 146.095 150.000,152.059 152.830,152.729 153.484 C 153.019 153.768,153.504 154.000,153.805 154.000 C 154.333 154.000,156.406 154.951,168.738 160.854 C 171.894 162.364,174.537 163.600,174.612 163.600 C 174.686 163.600,177.181 164.770,180.155 166.200 C 183.129 167.630,185.723 168.800,185.919 168.800 C 187.695 168.800,187.608 162.966,187.501 275.495 L 187.400 380.726 182.456 378.363 C 179.737 377.063,177.444 376.000,177.361 376.000 C 177.278 376.000,175.003 374.934,172.305 373.631 C 169.607 372.328,165.600 370.415,163.400 369.381 C 155.055 365.456,150.109 363.110,139.600 358.091 C 130.939 353.954,126.959 352.104,125.600 351.583 C 124.830 351.287,124.110 350.924,124.000 350.776 C 123.890 350.628,122.450 349.923,120.800 349.209 C 119.150 348.495,115.730 346.921,113.200 345.711 C 110.670 344.502,106.890 342.707,104.800 341.723 C 102.710 340.739,99.380 339.154,97.400 338.202 C 95.420 337.250,91.820 335.536,89.400 334.392 C 86.980 333.249,83.290 331.500,81.200 330.504 C 79.110 329.509,75.960 328.019,74.200 327.194 C 67.459 324.030,62.830 321.837,58.200 319.613 C 55.560 318.344,52.230 316.788,50.800 316.153 C 49.370 315.519,48.103 314.870,47.984 314.712 C 47.865 314.553,47.055 314.165,46.184 313.849 C 43.549 312.893,39.275 310.845,39.006 310.409 C 38.867 310.184,38.518 310.000,38.232 310.000 C 37.945 310.000,36.111 309.242,34.155 308.315 C 32.200 307.389,30.510 306.606,30.400 306.576 C 30.290 306.546,28.535 305.730,26.500 304.764 L 22.800 303.007 22.800 197.298 L 22.800 91.589 26.700 93.579 C 28.845 94.673,32.580 96.492,35.000 97.620 M376.397 197.369 C 376.406 309.690,376.495 304.000,374.731 304.000 C 374.505 304.000,371.773 305.234,368.660 306.743 C 365.547 308.251,362.550 309.622,362.000 309.790 C 361.450 309.957,360.730 310.322,360.400 310.601 C 360.070 310.879,358.450 311.676,356.800 312.373 C 355.150 313.069,352.270 314.372,350.400 315.270 C 348.530 316.167,345.380 317.666,343.400 318.601 C 341.420 319.535,337.865 321.223,335.500 322.350 C 333.135 323.478,329.265 325.316,326.900 326.436 C 324.535 327.555,320.800 329.327,318.600 330.373 C 314.756 332.201,311.402 333.788,303.200 337.659 C 301.110 338.646,297.690 340.269,295.600 341.266 C 288.757 344.530,285.562 346.000,285.310 346.000 C 285.174 346.000,284.779 346.240,284.431 346.533 C 284.084 346.826,282.810 347.472,281.600 347.968 C 280.390 348.464,278.140 349.472,276.600 350.207 C 267.784 354.417,262.716 356.800,262.580 356.800 C 262.495 356.800,259.495 358.217,255.913 359.949 C 246.132 364.679,240.865 367.193,238.200 368.405 C 235.730 369.528,230.947 371.785,223.600 375.294 C 221.290 376.397,217.690 378.106,215.600 379.092 C 213.510 380.078,211.665 380.966,211.500 381.066 C 211.335 381.166,211.200 333.744,211.200 275.683 L 211.200 170.120 213.700 168.917 C 215.075 168.256,217.730 166.989,219.600 166.102 C 221.470 165.215,225.118 163.479,227.706 162.245 C 230.294 161.010,232.480 160.000,232.564 160.000 C 232.648 160.000,235.713 158.560,239.375 156.800 C 243.037 155.040,246.214 153.600,246.434 153.600 C 246.654 153.600,247.051 153.419,247.317 153.199 C 247.828 152.774,253.269 150.112,259.600 147.190 C 261.690 146.225,263.460 145.293,263.533 145.118 C 263.607 144.943,263.903 144.800,264.192 144.800 C 264.776 144.800,269.123 142.843,274.600 140.115 L 278.200 138.321 278.461 154.061 C 278.604 162.717,278.580 169.980,278.407 170.200 C 278.235 170.420,278.014 179.825,277.918 191.100 L 277.742 211.600 278.771 211.598 C 279.337 211.598,287.462 207.773,296.826 203.098 C 306.190 198.424,315.145 193.985,316.726 193.234 L 319.600 191.867 319.600 155.394 L 319.600 118.921 321.300 118.172 C 322.235 117.759,323.090 117.301,323.200 117.154 C 323.310 117.006,325.200 116.120,327.400 115.185 C 329.600 114.249,331.490 113.375,331.600 113.242 C 331.872 112.912,337.182 110.494,338.298 110.191 C 338.791 110.057,339.421 109.734,339.698 109.474 C 339.974 109.213,341.550 108.390,343.200 107.646 C 346.203 106.290,350.994 104.053,357.000 101.202 C 358.760 100.366,362.180 98.749,364.600 97.608 C 367.020 96.467,370.530 94.751,372.400 93.794 C 374.270 92.837,375.932 92.042,376.094 92.027 C 376.256 92.012,376.392 139.416,376.397 197.369 " stroke="none" fill="#f3f3f3" fill-rule="evenodd"></path><path id="path2" d="M196.000 14.812 C 194.350 15.464,192.837 15.998,192.639 15.999 C 192.440 15.999,191.180 16.514,189.839 17.141 C 188.497 17.769,185.690 18.868,183.600 19.583 C 181.510 20.298,179.571 21.070,179.291 21.298 C 179.011 21.526,177.058 22.313,174.951 23.047 C 172.844 23.781,170.553 24.670,169.860 25.022 C 169.167 25.374,166.624 26.372,164.208 27.240 C 161.792 28.108,159.092 29.147,158.208 29.549 C 157.324 29.951,156.153 30.459,155.606 30.678 C 154.631 31.068,154.643 31.086,156.206 31.575 C 157.083 31.850,159.240 32.755,161.000 33.587 C 162.760 34.419,165.820 35.760,167.800 36.567 C 169.780 37.374,171.850 38.279,172.400 38.579 C 172.950 38.879,174.930 39.761,176.800 40.539 C 178.670 41.317,181.280 42.479,182.600 43.121 C 183.920 43.764,185.450 44.425,186.000 44.591 C 186.550 44.756,188.400 45.591,190.110 46.446 C 191.821 47.301,193.414 48.000,193.649 48.000 C 193.885 48.000,195.546 48.700,197.339 49.556 C 199.133 50.412,202.040 51.689,203.800 52.394 C 205.560 53.099,207.360 53.900,207.800 54.174 C 208.240 54.447,210.490 55.440,212.800 56.380 C 215.110 57.320,217.180 58.233,217.400 58.409 C 217.620 58.586,219.240 59.301,221.000 59.998 C 222.760 60.696,224.830 61.610,225.600 62.029 C 227.158 62.877,232.358 65.056,234.172 65.621 C 234.816 65.821,235.446 66.130,235.572 66.306 C 235.697 66.482,237.060 67.129,238.600 67.744 C 240.140 68.358,243.058 69.657,245.085 70.630 C 247.112 71.604,248.965 72.400,249.204 72.400 C 249.442 72.400,251.302 73.210,253.337 74.200 C 255.372 75.190,257.169 76.000,257.330 76.000 C 257.491 76.000,258.923 76.611,260.511 77.357 C 262.100 78.104,265.020 79.386,267.000 80.207 C 268.980 81.028,272.040 82.377,273.800 83.204 C 275.560 84.032,277.438 84.843,277.974 85.005 C 278.509 85.168,280.345 85.998,282.053 86.850 C 283.761 87.703,285.374 88.400,285.637 88.400 C 285.901 88.400,287.722 89.210,289.685 90.200 C 291.648 91.190,293.427 92.000,293.639 92.000 C 293.850 92.000,295.323 92.606,296.911 93.346 C 303.913 96.608,307.748 98.050,308.772 97.804 C 309.884 97.537,316.072 94.764,316.400 94.385 C 316.510 94.258,317.230 93.908,318.000 93.606 C 318.770 93.304,321.290 92.166,323.600 91.076 C 325.910 89.987,328.950 88.575,330.356 87.939 C 331.763 87.303,334.463 86.045,336.356 85.143 C 338.250 84.241,341.510 82.697,343.600 81.712 C 345.690 80.727,348.840 79.231,350.600 78.389 C 352.360 77.547,354.565 76.547,355.500 76.168 C 357.074 75.530,357.759 74.800,356.783 74.800 C 356.554 74.800,355.249 74.283,353.883 73.652 C 352.517 73.020,349.690 71.920,347.600 71.208 C 345.510 70.495,343.440 69.692,343.000 69.422 C 342.560 69.153,340.760 68.431,339.000 67.817 C 337.240 67.204,334.900 66.287,333.800 65.780 C 331.915 64.911,330.326 64.314,324.600 62.327 C 323.280 61.869,321.992 61.330,321.739 61.130 C 321.485 60.930,319.235 60.045,316.739 59.163 C 314.242 58.281,311.300 57.140,310.200 56.627 C 309.100 56.115,306.760 55.205,305.000 54.607 C 303.240 54.008,301.583 53.341,301.319 53.125 C 301.054 52.909,300.064 52.490,299.119 52.194 C 296.228 51.287,292.703 49.974,290.600 49.020 C 289.500 48.521,287.430 47.704,286.000 47.203 C 284.570 46.702,282.680 45.968,281.800 45.572 C 279.734 44.641,273.886 42.404,273.512 42.402 C 273.353 42.401,272.250 41.955,271.059 41.410 C 269.869 40.866,267.133 39.782,264.980 39.003 C 262.826 38.223,260.867 37.422,260.627 37.222 C 260.386 37.022,258.553 36.315,256.554 35.651 C 254.554 34.987,251.871 33.964,250.590 33.378 C 248.360 32.358,245.859 31.422,242.021 30.171 C 241.042 29.852,240.142 29.450,240.021 29.279 C 239.899 29.108,239.170 28.762,238.400 28.510 C 235.123 27.439,230.083 25.538,228.600 24.814 C 227.720 24.385,225.650 23.562,224.000 22.986 C 222.350 22.410,220.100 21.521,219.000 21.011 C 217.900 20.500,216.080 19.811,214.956 19.479 C 213.832 19.148,211.899 18.397,210.662 17.812 C 209.425 17.227,207.914 16.593,207.306 16.403 C 206.698 16.214,204.671 15.506,202.803 14.829 C 198.773 13.371,199.645 13.373,196.000 14.812 M100.865 52.017 C 99.690 52.434,97.767 53.231,96.590 53.788 C 95.413 54.344,94.308 54.800,94.135 54.800 C 93.620 54.800,88.217 56.951,88.000 57.242 C 87.890 57.390,87.170 57.694,86.400 57.918 C 84.125 58.580,78.322 60.768,77.843 61.145 C 77.599 61.337,76.320 61.869,75.000 62.327 C 70.100 64.028,67.932 64.835,67.275 65.202 C 66.169 65.821,61.658 67.600,61.195 67.600 C 60.960 67.600,59.559 68.165,58.083 68.855 C 56.607 69.546,53.602 70.729,51.404 71.486 C 49.206 72.243,47.226 73.002,47.004 73.175 C 46.782 73.347,45.745 73.807,44.700 74.198 C 42.304 75.094,42.323 75.299,44.900 76.391 C 46.901 77.238,49.926 78.662,59.800 83.407 C 62.220 84.570,65.820 86.284,67.800 87.217 C 69.780 88.149,73.560 89.942,76.200 91.200 C 78.840 92.458,81.450 93.627,82.000 93.798 C 82.550 93.968,83.090 94.244,83.200 94.411 C 83.310 94.578,85.200 95.480,87.400 96.415 C 89.600 97.351,91.490 98.225,91.600 98.358 C 91.710 98.491,93.330 99.306,95.200 100.169 C 97.070 101.031,100.490 102.637,102.800 103.736 C 105.110 104.836,108.710 106.537,110.800 107.516 C 114.431 109.218,116.538 110.218,126.000 114.733 C 132.744 117.951,139.103 120.972,143.400 122.998 C 149.617 125.930,153.365 127.711,159.000 130.411 C 161.860 131.781,164.913 133.154,165.784 133.463 C 166.655 133.771,167.465 134.153,167.584 134.312 C 167.703 134.470,169.150 135.207,170.800 135.950 C 172.450 136.692,175.690 138.209,178.000 139.319 C 180.310 140.430,183.910 142.144,186.000 143.128 C 188.090 144.112,191.510 145.772,193.600 146.817 C 199.134 149.584,199.231 149.590,203.870 147.370 C 206.032 146.336,208.880 144.999,210.200 144.399 C 211.520 143.799,214.580 142.368,217.000 141.218 C 219.420 140.068,222.930 138.403,224.800 137.518 C 226.670 136.632,229.640 135.224,231.400 134.388 C 233.160 133.553,235.770 132.363,237.200 131.745 C 238.630 131.128,240.038 130.392,240.329 130.111 C 240.619 129.830,241.031 129.600,241.244 129.600 C 241.717 129.600,248.121 126.725,248.400 126.387 C 248.510 126.254,249.369 125.842,250.309 125.472 C 253.700 124.137,258.834 121.475,258.520 121.214 C 258.344 121.067,257.390 120.628,256.400 120.239 C 255.410 119.849,252.768 118.646,250.529 117.565 C 248.290 116.484,246.246 115.600,245.987 115.600 C 245.729 115.600,244.321 114.981,242.858 114.224 C 241.396 113.468,238.400 112.100,236.200 111.185 C 234.000 110.270,230.940 108.926,229.400 108.199 C 227.860 107.472,224.852 106.050,222.715 105.038 C 220.578 104.027,218.644 103.200,218.418 103.200 C 218.191 103.200,216.430 102.410,214.503 101.446 C 212.576 100.481,210.550 99.556,210.000 99.392 C 209.450 99.227,207.629 98.397,205.954 97.546 C 204.278 96.696,202.782 96.000,202.630 96.000 C 202.477 96.000,200.788 95.272,198.876 94.383 C 196.964 93.494,194.320 92.296,193.000 91.721 C 191.680 91.146,188.746 89.804,186.480 88.738 C 184.214 87.672,182.144 86.798,181.880 86.795 C 181.616 86.793,180.590 86.323,179.600 85.752 C 178.610 85.180,176.485 84.182,174.877 83.534 C 173.270 82.886,170.719 81.735,169.210 80.977 C 167.700 80.220,166.343 79.600,166.193 79.600 C 166.044 79.600,164.454 78.900,162.661 78.044 C 160.867 77.188,157.783 75.809,155.807 74.979 C 153.831 74.150,151.973 73.230,151.678 72.936 C 151.384 72.641,150.891 72.400,150.582 72.400 C 149.960 72.400,147.999 71.558,142.540 68.945 C 140.528 67.981,138.101 66.918,137.147 66.581 C 136.193 66.245,135.040 65.725,134.584 65.426 C 134.127 65.127,132.144 64.220,130.177 63.411 C 128.210 62.601,126.235 61.705,125.789 61.418 C 125.342 61.132,123.542 60.325,121.789 59.625 C 120.035 58.925,117.992 57.995,117.249 57.559 C 116.506 57.124,114.346 56.155,112.449 55.408 C 110.552 54.660,107.740 53.408,106.200 52.625 C 104.660 51.843,103.310 51.215,103.200 51.230 C 103.090 51.246,102.039 51.600,100.865 52.017 M23.206 197.538 L 23.213 302.600 26.906 304.305 C 28.938 305.242,30.810 306.007,31.067 306.005 C 31.323 306.002,31.593 306.135,31.667 306.300 C 31.740 306.465,33.330 307.302,35.200 308.160 C 37.070 309.018,40.310 310.534,42.400 311.527 C 44.490 312.521,47.820 314.102,49.800 315.040 C 51.780 315.978,55.650 317.822,58.400 319.137 C 61.150 320.452,65.200 322.367,67.400 323.393 C 69.600 324.418,72.660 325.856,74.200 326.589 C 75.740 327.321,78.890 328.816,81.200 329.910 C 83.510 331.004,87.110 332.719,89.200 333.719 C 91.290 334.720,94.350 336.133,96.000 336.858 C 97.650 337.583,99.090 338.296,99.200 338.440 C 99.310 338.585,101.200 339.467,103.400 340.400 C 105.600 341.333,107.490 342.217,107.600 342.364 C 107.710 342.511,108.970 343.135,110.400 343.750 C 111.830 344.365,114.710 345.686,116.800 346.685 C 120.839 348.615,125.529 350.838,131.400 353.605 C 136.223 355.878,143.310 359.241,148.200 361.576 C 152.296 363.532,156.739 365.635,163.800 368.961 C 166.000 369.997,169.600 371.701,171.800 372.748 C 174.000 373.795,177.510 375.424,179.600 376.369 C 181.690 377.313,184.255 378.528,185.301 379.068 L 187.202 380.051 187.101 275.141 L 187.000 170.231 184.800 169.107 C 180.008 166.658,169.915 162.000,169.402 162.000 C 169.102 162.000,168.619 161.775,168.329 161.500 C 168.038 161.225,166.270 160.298,164.400 159.440 C 162.530 158.582,159.380 157.109,157.400 156.167 C 155.420 155.226,151.820 153.515,149.400 152.367 C 146.980 151.218,143.200 149.423,141.000 148.376 C 138.800 147.330,135.020 145.538,132.600 144.395 C 130.180 143.251,126.670 141.591,124.800 140.707 C 122.930 139.823,119.780 138.334,117.800 137.398 C 110.289 133.849,106.421 132.006,100.800 129.300 C 97.610 127.765,94.325 126.290,93.500 126.023 C 92.675 125.756,92.000 125.405,92.000 125.243 C 92.000 125.080,90.965 124.532,89.700 124.025 C 88.435 123.518,85.510 122.204,83.200 121.105 C 80.890 120.007,77.290 118.297,75.200 117.306 C 73.110 116.314,69.510 114.604,67.200 113.505 C 64.890 112.406,61.110 110.611,58.800 109.518 C 56.490 108.424,52.800 106.673,50.600 105.627 C 45.946 103.414,40.563 100.869,35.200 98.347 C 33.110 97.365,29.555 95.642,27.300 94.519 L 23.200 92.477 23.206 197.538 M372.200 94.518 C 368.040 96.610,361.707 99.635,349.800 105.217 C 342.921 108.442,333.124 113.103,324.519 117.244 L 320.039 119.400 320.019 155.856 L 320.000 192.312 317.140 193.656 C 315.568 194.395,306.618 198.825,297.252 203.500 C 283.799 210.215,279.894 212.000,278.658 212.000 L 277.094 212.000 277.343 204.300 C 277.761 191.389,278.132 139.200,277.805 139.200 C 277.637 139.200,276.127 139.911,274.450 140.781 C 272.772 141.650,269.870 143.066,268.000 143.927 C 264.769 145.415,261.401 147.004,251.400 151.757 C 248.980 152.908,245.470 154.558,243.600 155.424 C 241.730 156.291,239.962 157.225,239.671 157.500 C 239.381 157.775,238.895 158.000,238.593 158.000 C 238.290 158.000,235.042 159.440,231.375 161.200 C 227.708 162.960,224.629 164.400,224.533 164.400 C 224.337 164.400,216.962 167.902,213.701 169.544 L 211.603 170.600 211.601 275.523 L 211.600 380.447 213.900 379.269 C 215.165 378.622,217.910 377.307,220.000 376.348 C 222.090 375.389,224.038 374.379,224.329 374.102 C 224.619 373.826,225.111 373.600,225.422 373.600 C 226.112 373.600,232.147 370.718,232.333 370.300 C 232.407 370.135,232.697 370.000,232.978 370.000 C 233.627 370.000,239.829 367.122,255.507 359.545 C 259.086 357.815,262.088 356.400,262.179 356.400 C 262.269 356.400,264.831 355.215,267.872 353.766 C 270.912 352.318,274.660 350.536,276.200 349.807 C 278.534 348.702,282.738 346.701,289.761 343.354 C 290.400 343.049,291.150 342.800,291.428 342.800 C 291.706 342.800,291.993 342.650,292.067 342.467 C 292.218 342.088,299.246 338.800,299.903 338.800 C 300.140 338.800,300.393 338.665,300.467 338.500 C 300.540 338.335,301.950 337.594,303.600 336.852 C 305.250 336.111,308.310 334.688,310.400 333.690 C 312.490 332.692,316.043 331.000,318.296 329.930 C 320.549 328.860,324.239 327.104,326.496 326.028 C 328.753 324.952,332.535 323.155,334.900 322.036 C 337.265 320.916,341.135 319.081,343.500 317.959 C 345.865 316.836,349.240 315.242,351.000 314.417 C 352.760 313.592,355.910 312.102,358.000 311.106 C 360.090 310.110,363.150 308.689,364.800 307.948 C 366.450 307.206,367.890 306.487,368.000 306.350 C 368.110 306.212,369.624 305.508,371.364 304.786 C 373.104 304.063,374.861 303.139,375.268 302.732 C 376.039 301.961,376.461 92.711,375.691 92.854 C 375.531 92.884,373.960 93.633,372.200 94.518 M33.260 98.131 C 35.822 99.359,38.387 100.482,38.960 100.626 C 39.532 100.769,40.000 101.018,40.000 101.179 C 40.000 101.340,41.845 102.261,44.100 103.226 C 46.355 104.191,48.290 105.089,48.400 105.223 C 48.656 105.532,53.913 107.871,55.098 108.202 C 55.591 108.340,56.221 108.666,56.498 108.926 C 56.774 109.187,58.350 110.011,60.000 110.758 C 61.650 111.505,64.980 113.066,67.400 114.228 C 69.820 115.389,73.600 117.185,75.800 118.218 C 78.000 119.251,81.510 120.911,83.600 121.907 C 85.690 122.902,88.840 124.392,90.600 125.218 C 97.753 128.572,105.126 132.106,107.200 133.174 C 108.410 133.797,110.840 134.898,112.600 135.622 C 114.360 136.346,115.890 137.070,116.001 137.232 C 116.111 137.393,118.001 138.293,120.201 139.231 C 122.400 140.169,124.290 141.063,124.400 141.217 C 124.510 141.371,126.391 142.243,128.581 143.156 C 130.771 144.068,132.661 144.956,132.781 145.129 C 132.901 145.301,133.990 145.854,135.200 146.356 C 136.410 146.859,139.290 148.175,141.600 149.281 C 149.520 153.073,157.249 156.744,165.400 160.586 C 175.040 165.131,178.193 166.640,182.156 168.607 L 186.200 170.614 186.301 274.678 L 186.402 378.741 182.778 377.169 C 180.785 376.305,178.489 375.245,177.677 374.815 C 176.865 374.385,174.310 373.145,172.000 372.060 C 169.690 370.975,165.495 368.987,162.677 367.644 C 159.860 366.300,157.491 365.200,157.413 365.200 C 157.334 365.200,154.455 363.850,151.013 362.200 C 147.572 360.550,144.511 359.200,144.211 359.200 C 143.912 359.200,143.607 359.057,143.533 358.882 C 143.460 358.707,141.690 357.762,139.600 356.782 C 137.510 355.802,135.740 354.865,135.667 354.700 C 135.593 354.535,135.296 354.400,135.005 354.400 C 134.715 354.400,132.885 353.651,130.938 352.735 C 121.909 348.485,119.557 347.374,116.200 345.773 C 114.220 344.828,110.710 343.158,108.400 342.063 C 106.090 340.967,102.130 339.082,99.600 337.873 C 97.070 336.665,93.200 334.830,91.000 333.794 C 86.914 331.872,82.447 329.758,76.400 326.884 C 74.530 325.996,71.830 324.765,70.400 324.150 C 68.970 323.535,67.710 322.916,67.600 322.774 C 67.490 322.632,65.600 321.751,63.400 320.815 C 61.200 319.880,59.310 318.993,59.200 318.846 C 59.090 318.698,57.650 317.981,56.000 317.252 C 54.350 316.524,51.110 315.025,48.800 313.921 C 46.490 312.818,43.160 311.234,41.400 310.402 C 32.853 306.361,30.334 305.164,27.100 303.604 L 23.600 301.916 23.600 197.775 L 23.600 93.633 26.100 94.765 C 27.475 95.388,30.697 96.903,33.260 98.131 M375.343 96.459 C 375.654 99.439,375.681 300.665,375.370 301.800 C 375.231 302.306,374.316 302.946,372.875 303.543 C 371.624 304.061,368.530 305.485,366.000 306.705 C 361.398 308.926,356.610 311.200,350.600 314.017 C 348.840 314.842,345.465 316.436,343.100 317.559 C 340.735 318.681,336.865 320.516,334.500 321.636 C 329.363 324.067,323.589 326.812,318.400 329.289 C 316.310 330.287,312.890 331.919,310.800 332.915 C 308.710 333.912,305.470 335.401,303.600 336.224 C 301.730 337.047,300.110 337.849,300.000 338.006 C 299.890 338.164,299.350 338.431,298.800 338.601 C 298.250 338.771,295.370 340.070,292.400 341.489 C 289.430 342.908,285.110 344.973,282.800 346.077 C 280.490 347.182,277.340 348.681,275.800 349.409 C 274.260 350.137,270.512 351.918,267.472 353.366 C 264.431 354.815,261.869 356.000,261.779 356.000 C 261.688 356.000,258.596 357.454,254.907 359.231 C 248.236 362.444,243.417 364.742,236.662 367.930 C 234.715 368.849,232.885 369.600,232.595 369.600 C 232.304 369.600,232.007 369.746,231.933 369.924 C 231.860 370.102,230.270 370.941,228.400 371.788 C 224.063 373.754,216.361 377.412,213.900 378.675 L 212.000 379.650 212.001 275.325 L 212.003 171.000 214.101 169.945 C 215.256 169.364,217.910 168.089,220.000 167.110 C 222.090 166.131,225.392 164.581,227.338 163.665 C 229.285 162.749,231.115 162.000,231.405 162.000 C 231.696 162.000,231.993 161.865,232.067 161.700 C 232.140 161.535,233.730 160.694,235.600 159.831 C 239.002 158.262,242.971 156.381,251.600 152.248 C 257.866 149.247,264.319 146.206,268.400 144.330 C 270.270 143.470,272.996 142.144,274.457 141.383 C 275.919 140.623,277.248 140.000,277.413 140.000 C 277.729 140.000,277.366 189.542,276.944 203.900 L 276.694 212.400 278.686 212.400 C 280.478 212.400,282.345 211.567,297.279 204.100 C 306.409 199.535,315.346 195.106,317.139 194.258 L 320.400 192.715 320.411 156.258 L 320.421 119.800 324.911 117.648 C 337.143 111.783,343.579 108.721,350.200 105.617 C 356.974 102.441,361.153 100.465,365.200 98.523 C 372.292 95.121,374.590 94.049,374.843 94.024 C 374.977 94.011,375.202 95.106,375.343 96.459 " stroke="none" fill="#240cdc" fill-rule="evenodd"></path><path id="path3" d="M23.600 197.775 L 23.600 301.916 27.100 303.604 C 30.334 305.164,32.853 306.361,41.400 310.402 C 43.160 311.234,46.490 312.818,48.800 313.921 C 51.110 315.025,54.350 316.524,56.000 317.252 C 57.650 317.981,59.090 318.698,59.200 318.846 C 59.310 318.993,61.200 319.880,63.400 320.815 C 65.600 321.751,67.490 322.632,67.600 322.774 C 67.710 322.916,68.970 323.535,70.400 324.150 C 71.830 324.765,74.530 325.996,76.400 326.884 C 82.447 329.758,86.914 331.872,91.000 333.794 C 93.200 334.830,97.070 336.665,99.600 337.873 C 102.130 339.082,106.090 340.967,108.400 342.063 C 110.710 343.158,114.220 344.828,116.200 345.773 C 119.557 347.374,121.909 348.485,130.938 352.735 C 132.885 353.651,134.715 354.400,135.005 354.400 C 135.296 354.400,135.593 354.535,135.667 354.700 C 135.740 354.865,137.510 355.802,139.600 356.782 C 141.690 357.762,143.460 358.707,143.533 358.882 C 143.607 359.057,143.912 359.200,144.211 359.200 C 144.511 359.200,147.572 360.550,151.013 362.200 C 154.455 363.850,157.334 365.200,157.413 365.200 C 157.491 365.200,159.860 366.300,162.677 367.644 C 165.495 368.987,169.690 370.975,172.000 372.060 C 174.310 373.145,176.865 374.385,177.677 374.815 C 178.489 375.245,180.785 376.305,182.778 377.169 L 186.402 378.741 186.301 274.678 L 186.200 170.614 182.156 168.607 C 178.193 166.640,175.040 165.131,165.400 160.586 C 157.249 156.744,149.520 153.073,141.600 149.281 C 139.290 148.175,136.410 146.859,135.200 146.356 C 133.990 145.854,132.901 145.301,132.781 145.129 C 132.661 144.956,130.771 144.068,128.581 143.156 C 126.391 142.243,124.510 141.371,124.400 141.217 C 124.290 141.063,122.400 140.169,120.201 139.231 C 118.001 138.293,116.111 137.393,116.001 137.232 C 115.890 137.070,114.360 136.346,112.600 135.622 C 110.840 134.898,108.410 133.797,107.200 133.174 C 105.126 132.106,97.753 128.572,90.600 125.218 C 88.840 124.392,85.690 122.902,83.600 121.907 C 81.510 120.911,78.000 119.251,75.800 118.218 C 73.600 117.185,69.820 115.389,67.400 114.228 C 64.980 113.066,61.650 111.505,60.000 110.758 C 58.350 110.011,56.774 109.187,56.498 108.926 C 56.221 108.666,55.591 108.340,55.098 108.202 C 53.913 107.871,48.656 105.532,48.400 105.223 C 48.290 105.089,46.355 104.191,44.100 103.226 C 41.845 102.261,40.000 101.340,40.000 101.179 C 40.000 101.018,39.532 100.769,38.960 100.626 C 38.387 100.482,35.822 99.359,33.260 98.131 C 30.697 96.903,27.475 95.388,26.100 94.765 L 23.600 93.633 23.600 197.775 " stroke="none" fill="#2404e4" fill-rule="evenodd"></path><path id="path4" d="M196.800 13.795 C 195.810 14.282,193.470 15.197,191.600 15.828 C 189.730 16.460,188.110 17.100,188.000 17.250 C 187.795 17.530,184.389 18.832,181.224 19.841 C 180.247 20.153,179.077 20.641,178.624 20.927 C 178.171 21.213,176.900 21.769,175.800 22.161 C 171.132 23.828,168.187 24.991,168.000 25.242 C 167.890 25.390,167.170 25.694,166.400 25.918 C 164.576 26.448,158.935 28.561,157.400 29.289 C 156.740 29.602,155.576 30.132,154.812 30.466 L 153.425 31.074 156.812 32.370 C 158.676 33.082,160.821 34.025,161.579 34.466 C 162.338 34.906,164.048 35.680,165.379 36.185 C 166.711 36.690,169.240 37.767,171.000 38.578 C 172.760 39.389,175.280 40.515,176.600 41.079 C 177.920 41.644,180.488 42.802,182.307 43.653 C 184.126 44.504,185.807 45.200,186.044 45.200 C 186.281 45.200,187.903 45.920,189.648 46.800 C 191.393 47.680,193.014 48.400,193.249 48.400 C 193.485 48.400,195.146 49.106,196.939 49.969 C 198.733 50.832,201.640 52.119,203.400 52.829 C 205.160 53.538,206.884 54.362,207.231 54.659 C 207.579 54.957,208.017 55.200,208.204 55.200 C 208.685 55.200,216.512 58.418,217.014 58.822 C 217.242 59.005,218.827 59.716,220.537 60.400 C 222.247 61.085,224.881 62.265,226.390 63.023 C 227.900 63.780,229.327 64.400,229.561 64.400 C 229.795 64.400,231.654 65.187,233.693 66.149 C 235.732 67.112,238.840 68.484,240.600 69.199 C 242.360 69.914,243.890 70.628,244.000 70.785 C 244.110 70.942,244.560 71.177,245.000 71.308 C 246.533 71.765,252.900 74.447,253.747 74.993 C 254.216 75.296,256.040 76.109,257.800 76.800 C 259.560 77.491,261.360 78.278,261.800 78.549 C 262.240 78.820,264.310 79.718,266.400 80.546 C 268.490 81.374,270.470 82.224,270.800 82.434 C 271.414 82.825,272.682 83.395,276.200 84.860 C 277.300 85.318,279.681 86.392,281.491 87.246 C 283.301 88.101,284.993 88.800,285.249 88.800 C 285.506 88.800,287.322 89.610,289.285 90.600 C 291.248 91.590,293.027 92.400,293.237 92.400 C 293.448 92.400,295.281 93.178,297.310 94.128 C 299.340 95.079,302.530 96.474,304.400 97.228 C 306.270 97.983,307.853 98.715,307.919 98.856 C 307.984 98.998,308.704 98.774,309.519 98.360 C 310.333 97.946,313.070 96.635,315.600 95.448 C 318.130 94.260,322.000 92.435,324.200 91.391 C 326.400 90.347,329.280 89.005,330.600 88.407 C 333.185 87.238,337.937 85.011,344.000 82.128 C 352.622 78.027,354.309 77.232,356.600 76.188 L 359.000 75.095 357.573 74.593 C 356.788 74.318,355.168 73.633,353.973 73.071 C 352.778 72.510,350.090 71.469,348.000 70.759 C 345.910 70.049,344.110 69.350,344.000 69.204 C 343.890 69.058,342.090 68.344,340.000 67.617 C 337.910 66.889,335.103 65.778,333.761 65.147 C 332.420 64.516,331.160 63.999,330.961 63.998 C 330.539 63.996,324.819 61.834,322.838 60.927 C 322.088 60.584,319.762 59.691,317.668 58.943 C 315.574 58.194,313.667 57.426,313.430 57.235 C 313.194 57.043,312.100 56.574,311.000 56.192 C 309.900 55.810,307.752 55.065,306.227 54.537 C 304.701 54.009,303.261 53.420,303.027 53.229 C 302.792 53.038,301.160 52.392,299.400 51.793 C 297.640 51.195,295.258 50.264,294.106 49.726 C 292.954 49.188,291.514 48.595,290.906 48.410 C 288.634 47.715,283.070 45.591,282.643 45.255 C 282.399 45.063,281.120 44.531,279.800 44.073 C 274.354 42.183,272.590 41.509,272.400 41.245 C 272.290 41.093,271.570 40.769,270.800 40.525 C 267.932 39.619,262.567 37.591,261.600 37.048 C 261.050 36.739,258.720 35.836,256.422 35.040 C 254.124 34.245,252.144 33.461,252.022 33.297 C 251.900 33.134,250.540 32.578,249.000 32.062 C 245.311 30.826,241.908 29.514,241.357 29.116 C 240.938 28.814,238.224 27.815,234.547 26.609 C 233.638 26.311,231.838 25.582,230.547 24.990 C 229.256 24.398,226.670 23.374,224.800 22.715 C 222.930 22.056,221.203 21.357,220.963 21.162 C 220.723 20.966,218.833 20.250,216.763 19.570 C 214.693 18.890,212.190 17.929,211.200 17.434 C 210.210 16.940,207.375 15.843,204.900 14.998 C 202.425 14.152,200.400 13.312,200.400 13.130 C 200.400 12.557,198.667 12.877,196.800 13.795 M202.803 14.829 C 204.671 15.506,206.698 16.214,207.306 16.403 C 207.914 16.593,209.425 17.227,210.662 17.812 C 211.899 18.397,213.832 19.148,214.956 19.479 C 216.080 19.811,217.900 20.500,219.000 21.011 C 220.100 21.521,222.350 22.410,224.000 22.986 C 225.650 23.562,227.720 24.385,228.600 24.814 C 230.083 25.538,235.123 27.439,238.400 28.510 C 239.170 28.762,239.899 29.108,240.021 29.279 C 240.142 29.450,241.042 29.852,242.021 30.171 C 245.859 31.422,248.360 32.358,250.590 33.378 C 251.871 33.964,254.554 34.987,256.554 35.651 C 258.553 36.315,260.386 37.022,260.627 37.222 C 260.867 37.422,262.826 38.223,264.980 39.003 C 267.133 39.782,269.869 40.866,271.059 41.410 C 272.250 41.955,273.353 42.401,273.512 42.402 C 273.886 42.404,279.734 44.641,281.800 45.572 C 282.680 45.968,284.570 46.702,286.000 47.203 C 287.430 47.704,289.500 48.521,290.600 49.020 C 292.703 49.974,296.228 51.287,299.119 52.194 C 300.064 52.490,301.054 52.909,301.319 53.125 C 301.583 53.341,303.240 54.008,305.000 54.607 C 306.760 55.205,309.100 56.115,310.200 56.627 C 311.300 57.140,314.242 58.281,316.739 59.163 C 319.235 60.045,321.485 60.930,321.739 61.130 C 321.992 61.330,323.280 61.869,324.600 62.327 C 330.326 64.314,331.915 64.911,333.800 65.780 C 334.900 66.287,337.240 67.204,339.000 67.817 C 340.760 68.431,342.560 69.153,343.000 69.422 C 343.440 69.692,345.510 70.495,347.600 71.208 C 349.690 71.920,352.517 73.020,353.883 73.652 C 355.249 74.283,356.554 74.800,356.783 74.800 C 357.759 74.800,357.074 75.530,355.500 76.168 C 354.565 76.547,352.360 77.547,350.600 78.389 C 348.840 79.231,345.690 80.727,343.600 81.712 C 341.510 82.697,338.250 84.241,336.356 85.143 C 334.463 86.045,331.763 87.303,330.356 87.939 C 328.950 88.575,325.910 89.987,323.600 91.076 C 321.290 92.166,318.770 93.304,318.000 93.606 C 317.230 93.908,316.510 94.258,316.400 94.385 C 316.072 94.764,309.884 97.537,308.772 97.804 C 307.748 98.050,303.913 96.608,296.911 93.346 C 295.323 92.606,293.850 92.000,293.639 92.000 C 293.427 92.000,291.648 91.190,289.685 90.200 C 287.722 89.210,285.901 88.400,285.637 88.400 C 285.374 88.400,283.761 87.703,282.053 86.850 C 280.345 85.998,278.509 85.168,277.974 85.005 C 277.438 84.843,275.560 84.032,273.800 83.204 C 272.040 82.377,268.980 81.028,267.000 80.207 C 265.020 79.386,262.100 78.104,260.511 77.357 C 258.923 76.611,257.491 76.000,257.330 76.000 C 257.169 76.000,255.372 75.190,253.337 74.200 C 251.302 73.210,249.442 72.400,249.204 72.400 C 248.965 72.400,247.112 71.604,245.085 70.630 C 243.058 69.657,240.140 68.358,238.600 67.744 C 237.060 67.129,235.697 66.482,235.572 66.306 C 235.446 66.130,234.816 65.821,234.172 65.621 C 232.358 65.056,227.158 62.877,225.600 62.029 C 224.830 61.610,222.760 60.696,221.000 59.998 C 219.240 59.301,217.620 58.586,217.400 58.409 C 217.180 58.233,215.110 57.320,212.800 56.380 C 210.490 55.440,208.240 54.447,207.800 54.174 C 207.360 53.900,205.560 53.099,203.800 52.394 C 202.040 51.689,199.133 50.412,197.339 49.556 C 195.546 48.700,193.885 48.000,193.649 48.000 C 193.414 48.000,191.821 47.301,190.110 46.446 C 188.400 45.591,186.550 44.756,186.000 44.591 C 185.450 44.425,183.920 43.764,182.600 43.121 C 181.280 42.479,178.670 41.317,176.800 40.539 C 174.930 39.761,172.950 38.879,172.400 38.579 C 171.850 38.279,169.780 37.374,167.800 36.567 C 165.820 35.760,162.760 34.419,161.000 33.587 C 159.240 32.755,157.083 31.850,156.206 31.575 C 154.643 31.086,154.631 31.068,155.606 30.678 C 156.153 30.459,157.324 29.951,158.208 29.549 C 159.092 29.147,161.792 28.108,164.208 27.240 C 166.624 26.372,169.167 25.374,169.860 25.022 C 170.553 24.670,172.844 23.781,174.951 23.047 C 177.058 22.313,179.011 21.526,179.291 21.298 C 179.571 21.070,181.510 20.298,183.600 19.583 C 185.690 18.868,188.497 17.769,189.839 17.141 C 191.180 16.514,192.440 15.999,192.639 15.999 C 192.837 15.998,194.350 15.464,196.000 14.812 C 199.645 13.373,198.773 13.371,202.803 14.829 M99.848 51.809 C 98.335 52.347,96.895 52.951,96.648 53.151 C 96.402 53.350,95.390 53.793,94.400 54.135 C 90.067 55.631,87.680 56.529,86.000 57.294 C 84.165 58.130,78.447 60.296,77.000 60.704 C 76.560 60.828,76.110 61.052,76.000 61.201 C 75.890 61.350,74.990 61.757,74.000 62.105 C 69.529 63.674,67.271 64.534,65.600 65.300 C 63.484 66.271,57.792 68.388,56.500 68.686 C 56.005 68.800,55.600 69.044,55.600 69.228 C 55.600 69.412,55.015 69.735,54.300 69.945 C 51.752 70.696,46.986 72.484,44.612 73.580 C 43.285 74.192,41.930 74.787,41.600 74.902 C 41.241 75.027,42.286 75.704,44.200 76.587 C 45.960 77.399,49.020 78.844,51.000 79.799 C 57.640 82.999,64.571 86.305,68.200 88.003 C 70.180 88.929,73.690 90.587,76.000 91.686 C 78.310 92.785,81.460 94.276,83.000 95.000 C 84.540 95.724,88.462 97.595,91.716 99.158 C 94.969 100.721,97.884 102.000,98.192 102.000 C 98.500 102.000,98.861 102.175,98.993 102.388 C 99.288 102.866,105.912 106.000,106.627 106.000 C 106.911 106.000,107.381 106.225,107.671 106.500 C 107.962 106.775,109.550 107.606,111.200 108.348 C 114.117 109.658,117.563 111.287,125.800 115.248 C 129.594 117.073,135.382 119.818,143.400 123.596 C 148.527 126.011,153.819 128.522,158.100 130.570 C 170.346 136.429,172.698 137.525,173.600 137.795 C 174.150 137.960,174.870 138.320,175.200 138.595 C 175.915 139.192,182.118 142.000,182.722 142.000 C 182.953 142.000,183.381 142.225,183.671 142.500 C 183.962 142.775,185.370 143.510,186.800 144.134 C 188.230 144.758,190.930 146.048,192.800 147.003 C 194.670 147.957,197.000 149.012,197.978 149.349 L 199.755 149.960 203.978 147.926 C 206.300 146.807,209.280 145.401,210.600 144.801 C 213.077 143.675,217.973 141.363,225.092 137.958 C 227.343 136.881,229.295 136.000,229.430 136.000 C 229.565 136.000,231.773 134.991,234.338 133.758 C 236.902 132.525,240.530 130.795,242.400 129.912 C 262.975 120.204,261.181 121.453,256.895 119.823 C 255.193 119.175,252.251 117.870,250.358 116.923 C 248.465 115.975,246.665 115.197,246.358 115.193 C 246.051 115.189,244.810 114.637,243.600 113.967 C 242.390 113.296,239.950 112.145,238.178 111.408 C 236.406 110.671,234.246 109.709,233.378 109.270 C 231.084 108.109,226.128 106.000,225.694 106.000 C 225.490 106.000,224.907 105.640,224.400 105.200 C 223.893 104.760,223.257 104.400,222.987 104.400 C 222.410 104.400,219.243 103.031,214.123 100.569 C 212.100 99.596,210.210 98.798,209.923 98.795 C 209.635 98.793,208.590 98.325,207.600 97.756 C 206.610 97.188,204.270 96.092,202.400 95.320 C 200.530 94.549,198.460 93.597,197.800 93.205 C 197.140 92.812,196.150 92.358,195.600 92.196 C 195.050 92.033,192.980 91.139,191.000 90.208 C 185.332 87.543,181.774 86.000,181.297 86.000 C 181.055 86.000,180.619 85.765,180.329 85.477 C 180.038 85.189,178.090 84.271,176.000 83.436 C 173.910 82.601,171.830 81.685,171.378 81.401 C 170.926 81.116,168.766 80.125,166.578 79.198 C 164.390 78.270,162.405 77.355,162.167 77.163 C 161.929 76.971,160.129 76.167,158.167 75.377 C 156.205 74.586,154.060 73.607,153.400 73.201 C 152.740 72.794,151.480 72.196,150.600 71.872 C 146.700 70.433,144.671 69.529,144.128 68.985 C 143.806 68.663,143.345 68.400,143.103 68.400 C 142.643 68.400,138.944 66.809,134.200 64.570 C 132.660 63.844,130.449 62.878,129.287 62.425 C 128.125 61.972,126.775 61.344,126.287 61.029 C 125.799 60.714,124.007 59.907,122.304 59.234 C 120.602 58.562,118.247 57.469,117.072 56.806 C 115.897 56.143,114.700 55.600,114.412 55.600 C 114.124 55.600,112.249 54.799,110.244 53.820 C 103.232 50.395,103.614 50.469,99.848 51.809 M106.200 52.625 C 107.740 53.408,110.552 54.660,112.449 55.408 C 114.346 56.155,116.506 57.124,117.249 57.559 C 117.992 57.995,120.035 58.925,121.789 59.625 C 123.542 60.325,125.342 61.132,125.789 61.418 C 126.235 61.705,128.210 62.601,130.177 63.411 C 132.144 64.220,134.127 65.127,134.584 65.426 C 135.040 65.725,136.193 66.245,137.147 66.581 C 138.101 66.918,140.528 67.981,142.540 68.945 C 147.999 71.558,149.960 72.400,150.582 72.400 C 150.891 72.400,151.384 72.641,151.678 72.936 C 151.973 73.230,153.831 74.150,155.807 74.979 C 157.783 75.809,160.867 77.188,162.661 78.044 C 164.454 78.900,166.044 79.600,166.193 79.600 C 166.343 79.600,167.700 80.220,169.210 80.977 C 170.719 81.735,173.270 82.886,174.877 83.534 C 176.485 84.182,178.610 85.180,179.600 85.752 C 180.590 86.323,181.616 86.793,181.880 86.795 C 182.144 86.798,184.214 87.672,186.480 88.738 C 188.746 89.804,191.680 91.146,193.000 91.721 C 194.320 92.296,196.964 93.494,198.876 94.383 C 200.788 95.272,202.477 96.000,202.630 96.000 C 202.782 96.000,204.278 96.696,205.954 97.546 C 207.629 98.397,209.450 99.227,210.000 99.392 C 210.550 99.556,212.576 100.481,214.503 101.446 C 216.430 102.410,218.191 103.200,218.418 103.200 C 218.644 103.200,220.578 104.027,222.715 105.038 C 224.852 106.050,227.860 107.472,229.400 108.199 C 230.940 108.926,234.000 110.270,236.200 111.185 C 238.400 112.100,241.396 113.468,242.858 114.224 C 244.321 114.981,245.729 115.600,245.987 115.600 C 246.246 115.600,248.290 116.484,250.529 117.565 C 252.768 118.646,255.410 119.849,256.400 120.239 C 257.390 120.628,258.344 121.067,258.520 121.214 C 258.834 121.475,253.700 124.137,250.309 125.472 C 249.369 125.842,248.510 126.254,248.400 126.387 C 248.121 126.725,241.717 129.600,241.244 129.600 C 241.031 129.600,240.619 129.830,240.329 130.111 C 240.038 130.392,238.630 131.128,237.200 131.745 C 235.770 132.363,233.160 133.553,231.400 134.388 C 229.640 135.224,226.670 136.632,224.800 137.518 C 222.930 138.403,219.420 140.068,217.000 141.218 C 214.580 142.368,211.520 143.799,210.200 144.399 C 208.880 144.999,206.032 146.336,203.870 147.370 C 199.231 149.590,199.134 149.584,193.600 146.817 C 191.510 145.772,188.090 144.112,186.000 143.128 C 183.910 142.144,180.310 140.430,178.000 139.319 C 175.690 138.209,172.450 136.692,170.800 135.950 C 169.150 135.207,167.703 134.470,167.584 134.312 C 167.465 134.153,166.655 133.771,165.784 133.463 C 164.913 133.154,161.860 131.781,159.000 130.411 C 153.365 127.711,149.617 125.930,143.400 122.998 C 139.103 120.972,132.744 117.951,126.000 114.733 C 116.538 110.218,114.431 109.218,110.800 107.516 C 108.710 106.537,105.110 104.836,102.800 103.736 C 100.490 102.637,97.070 101.031,95.200 100.169 C 93.330 99.306,91.710 98.491,91.600 98.358 C 91.490 98.225,89.600 97.351,87.400 96.415 C 85.200 95.480,83.310 94.578,83.200 94.411 C 83.090 94.244,82.550 93.968,82.000 93.798 C 81.450 93.627,78.840 92.458,76.200 91.200 C 73.560 89.942,69.780 88.149,67.800 87.217 C 65.820 86.284,62.220 84.570,59.800 83.407 C 49.926 78.662,46.901 77.238,44.900 76.391 C 42.323 75.299,42.304 75.094,44.700 74.198 C 45.745 73.807,46.782 73.347,47.004 73.175 C 47.226 73.002,49.206 72.243,51.404 71.486 C 53.602 70.729,56.607 69.546,58.083 68.855 C 59.559 68.165,60.960 67.600,61.195 67.600 C 61.658 67.600,66.169 65.821,67.275 65.202 C 67.932 64.835,70.100 64.028,75.000 62.327 C 76.320 61.869,77.599 61.337,77.843 61.145 C 78.322 60.768,84.125 58.580,86.400 57.918 C 87.170 57.694,87.890 57.390,88.000 57.242 C 88.217 56.951,93.620 54.800,94.135 54.800 C 94.308 54.800,95.413 54.344,96.590 53.788 C 98.414 52.924,102.562 51.320,103.200 51.230 C 103.310 51.215,104.660 51.843,106.200 52.625 M21.797 196.800 C 21.797 255.210,21.843 279.105,21.900 249.900 C 21.957 220.695,21.957 172.905,21.900 143.700 C 21.843 114.495,21.797 138.390,21.797 196.800 M22.800 197.298 L 22.800 303.007 26.500 304.764 C 28.535 305.730,30.290 306.546,30.400 306.576 C 30.510 306.606,32.200 307.389,34.155 308.315 C 36.111 309.242,37.945 310.000,38.232 310.000 C 38.518 310.000,38.867 310.184,39.006 310.409 C 39.275 310.845,43.549 312.893,46.184 313.849 C 47.055 314.165,47.865 314.553,47.984 314.712 C 48.103 314.870,49.370 315.519,50.800 316.153 C 52.230 316.788,55.560 318.344,58.200 319.613 C 62.830 321.837,67.459 324.030,74.200 327.194 C 75.960 328.019,79.110 329.509,81.200 330.504 C 83.290 331.500,86.980 333.249,89.400 334.392 C 91.820 335.536,95.420 337.250,97.400 338.202 C 99.380 339.154,102.710 340.739,104.800 341.723 C 106.890 342.707,110.670 344.502,113.200 345.711 C 115.730 346.921,119.150 348.495,120.800 349.209 C 122.450 349.923,123.890 350.628,124.000 350.776 C 124.110 350.924,124.830 351.287,125.600 351.583 C 126.959 352.104,130.939 353.954,139.600 358.091 C 150.109 363.110,155.055 365.456,163.400 369.381 C 165.600 370.415,169.607 372.328,172.305 373.631 C 175.003 374.934,177.278 376.000,177.361 376.000 C 177.444 376.000,179.737 377.063,182.456 378.363 L 187.400 380.726 187.501 275.495 C 187.608 162.966,187.695 168.800,185.919 168.800 C 185.723 168.800,183.129 167.630,180.155 166.200 C 177.181 164.770,174.686 163.600,174.612 163.600 C 174.537 163.600,171.894 162.364,168.738 160.854 C 156.406 154.951,154.333 154.000,153.805 154.000 C 153.504 154.000,153.019 153.768,152.729 153.484 C 152.059 152.830,146.095 150.000,145.387 150.000 C 145.096 150.000,144.619 149.775,144.329 149.500 C 144.038 149.225,142.270 148.292,140.400 147.428 C 136.975 145.844,131.811 143.415,124.800 140.091 C 122.710 139.100,119.290 137.486,117.200 136.503 C 115.110 135.521,111.780 133.941,109.800 132.992 C 101.612 129.070,96.018 126.406,93.000 124.993 C 91.240 124.169,88.000 122.631,85.800 121.576 C 83.600 120.520,80.630 119.174,79.200 118.583 C 77.770 117.993,76.510 117.376,76.400 117.213 C 76.290 117.050,74.400 116.151,72.200 115.215 C 70.000 114.280,68.110 113.392,68.000 113.241 C 67.890 113.091,66.630 112.472,65.200 111.865 C 63.770 111.258,60.710 109.851,58.400 108.738 C 56.090 107.625,52.535 105.923,50.500 104.957 C 48.465 103.991,45.135 102.406,43.100 101.436 C 41.065 100.465,37.420 98.748,35.000 97.620 C 32.580 96.492,28.845 94.673,26.700 93.579 L 22.800 91.589 22.800 197.298 M372.400 93.794 C 370.530 94.751,367.020 96.467,364.600 97.608 C 362.180 98.749,358.760 100.366,357.000 101.202 C 350.994 104.053,346.203 106.290,343.200 107.646 C 341.550 108.390,339.974 109.213,339.698 109.474 C 339.421 109.734,338.791 110.057,338.298 110.191 C 337.182 110.494,331.872 112.912,331.600 113.242 C 331.490 113.375,329.600 114.249,327.400 115.185 C 325.200 116.120,323.310 117.006,323.200 117.154 C 323.090 117.301,322.235 117.759,321.300 118.172 L 319.600 118.921 319.600 155.394 L 319.600 191.867 316.726 193.234 C 315.145 193.985,306.190 198.424,296.826 203.098 C 287.462 207.773,279.337 211.598,278.771 211.598 L 277.742 211.600 277.918 191.100 C 278.014 179.825,278.235 170.420,278.407 170.200 C 278.580 169.980,278.604 162.717,278.461 154.061 L 278.200 138.321 274.600 140.115 C 269.123 142.843,264.776 144.800,264.192 144.800 C 263.903 144.800,263.607 144.943,263.533 145.118 C 263.460 145.293,261.690 146.225,259.600 147.190 C 253.269 150.112,247.828 152.774,247.317 153.199 C 247.051 153.419,246.654 153.600,246.434 153.600 C 246.214 153.600,243.037 155.040,239.375 156.800 C 235.713 158.560,232.648 160.000,232.564 160.000 C 232.480 160.000,230.294 161.010,227.706 162.245 C 225.118 163.479,221.470 165.215,219.600 166.102 C 217.730 166.989,215.075 168.256,213.700 168.917 L 211.200 170.120 211.200 275.683 C 211.200 333.744,211.335 381.166,211.500 381.066 C 211.665 380.966,213.510 380.078,215.600 379.092 C 217.690 378.106,221.290 376.397,223.600 375.294 C 230.947 371.785,235.730 369.528,238.200 368.405 C 240.865 367.193,246.132 364.679,255.913 359.949 C 259.495 358.217,262.495 356.800,262.580 356.800 C 262.716 356.800,267.784 354.417,276.600 350.207 C 278.140 349.472,280.390 348.464,281.600 347.968 C 282.810 347.472,284.084 346.826,284.431 346.533 C 284.779 346.240,285.174 346.000,285.310 346.000 C 285.562 346.000,288.757 344.530,295.600 341.266 C 297.690 340.269,301.110 338.646,303.200 337.659 C 311.402 333.788,314.756 332.201,318.600 330.373 C 320.800 329.327,324.535 327.555,326.900 326.436 C 329.265 325.316,333.135 323.478,335.500 322.350 C 337.865 321.223,341.420 319.535,343.400 318.601 C 345.380 317.666,348.530 316.167,350.400 315.270 C 352.270 314.372,355.150 313.069,356.800 312.373 C 358.450 311.676,360.070 310.879,360.400 310.601 C 360.730 310.322,361.450 309.957,362.000 309.790 C 362.550 309.622,365.547 308.251,368.660 306.743 C 371.773 305.234,374.505 304.000,374.731 304.000 C 376.495 304.000,376.406 309.690,376.397 197.369 C 376.392 139.416,376.256 92.012,376.094 92.027 C 375.932 92.042,374.270 92.837,372.400 93.794 M35.200 98.347 C 40.563 100.869,45.946 103.414,50.600 105.627 C 52.800 106.673,56.490 108.424,58.800 109.518 C 61.110 110.611,64.890 112.406,67.200 113.505 C 69.510 114.604,73.110 116.314,75.200 117.306 C 77.290 118.297,80.890 120.007,83.200 121.105 C 85.510 122.204,88.435 123.518,89.700 124.025 C 90.965 124.532,92.000 125.080,92.000 125.243 C 92.000 125.405,92.675 125.756,93.500 126.023 C 94.325 126.290,97.610 127.765,100.800 129.300 C 106.421 132.006,110.289 133.849,117.800 137.398 C 119.780 138.334,122.930 139.823,124.800 140.707 C 126.670 141.591,130.180 143.251,132.600 144.395 C 135.020 145.538,138.800 147.330,141.000 148.376 C 143.200 149.423,146.980 151.218,149.400 152.367 C 151.820 153.515,155.420 155.226,157.400 156.167 C 159.380 157.109,162.530 158.582,164.400 159.440 C 166.270 160.298,168.038 161.225,168.329 161.500 C 168.619 161.775,169.102 162.000,169.402 162.000 C 169.915 162.000,180.008 166.658,184.800 169.107 L 187.000 170.231 187.101 275.141 L 187.202 380.051 185.301 379.068 C 184.255 378.528,181.690 377.313,179.600 376.369 C 177.510 375.424,174.000 373.795,171.800 372.748 C 169.600 371.701,166.000 369.997,163.800 368.961 C 156.739 365.635,152.296 363.532,148.200 361.576 C 143.310 359.241,136.223 355.878,131.400 353.605 C 125.529 350.838,120.839 348.615,116.800 346.685 C 114.710 345.686,111.830 344.365,110.400 343.750 C 108.970 343.135,107.710 342.511,107.600 342.364 C 107.490 342.217,105.600 341.333,103.400 340.400 C 101.200 339.467,99.310 338.585,99.200 338.440 C 99.090 338.296,97.650 337.583,96.000 336.858 C 94.350 336.133,91.290 334.720,89.200 333.719 C 87.110 332.719,83.510 331.004,81.200 329.910 C 78.890 328.816,75.740 327.321,74.200 326.589 C 72.660 325.856,69.600 324.418,67.400 323.393 C 65.200 322.367,61.150 320.452,58.400 319.137 C 55.650 317.822,51.780 315.978,49.800 315.040 C 47.820 314.102,44.490 312.521,42.400 311.527 C 40.310 310.534,37.070 309.018,35.200 308.160 C 33.330 307.302,31.740 306.465,31.667 306.300 C 31.593 306.135,31.323 306.002,31.067 306.005 C 30.810 306.007,28.938 305.242,26.906 304.305 L 23.213 302.600 23.206 197.538 L 23.200 92.477 27.300 94.519 C 29.555 95.642,33.110 97.365,35.200 98.347 M375.995 197.396 C 376.008 298.658,375.985 302.015,375.268 302.732 C 374.861 303.139,373.104 304.063,371.364 304.786 C 369.624 305.508,368.110 306.212,368.000 306.350 C 367.890 306.487,366.450 307.206,364.800 307.948 C 363.150 308.689,360.090 310.110,358.000 311.106 C 355.910 312.102,352.760 313.592,351.000 314.417 C 349.240 315.242,345.865 316.836,343.500 317.959 C 341.135 319.081,337.265 320.916,334.900 322.036 C 332.535 323.155,328.753 324.952,326.496 326.028 C 324.239 327.104,320.549 328.860,318.296 329.930 C 316.043 331.000,312.490 332.692,310.400 333.690 C 308.310 334.688,305.250 336.111,303.600 336.852 C 301.950 337.594,300.540 338.335,300.467 338.500 C 300.393 338.665,300.140 338.800,299.903 338.800 C 299.246 338.800,292.218 342.088,292.067 342.467 C 291.993 342.650,291.706 342.800,291.428 342.800 C 291.150 342.800,290.400 343.049,289.761 343.354 C 282.738 346.701,278.534 348.702,276.200 349.807 C 274.660 350.536,270.912 352.318,267.872 353.766 C 264.831 355.215,262.269 356.400,262.179 356.400 C 262.088 356.400,259.086 357.815,255.507 359.545 C 239.829 367.122,233.627 370.000,232.978 370.000 C 232.697 370.000,232.407 370.135,232.333 370.300 C 232.147 370.718,226.112 373.600,225.422 373.600 C 225.111 373.600,224.619 373.826,224.329 374.102 C 224.038 374.379,222.090 375.389,220.000 376.348 C 217.910 377.307,215.165 378.622,213.900 379.269 L 211.600 380.447 211.601 275.523 L 211.603 170.600 213.701 169.544 C 216.962 167.902,224.337 164.400,224.533 164.400 C 224.629 164.400,227.708 162.960,231.375 161.200 C 235.042 159.440,238.290 158.000,238.593 158.000 C 238.895 158.000,239.381 157.775,239.671 157.500 C 239.962 157.225,241.730 156.291,243.600 155.424 C 245.470 154.558,248.980 152.908,251.400 151.757 C 261.401 147.004,264.769 145.415,268.000 143.927 C 269.870 143.066,272.772 141.650,274.450 140.781 C 276.127 139.911,277.637 139.200,277.805 139.200 C 278.132 139.200,277.761 191.389,277.343 204.300 L 277.094 212.000 278.658 212.000 C 279.894 212.000,283.799 210.215,297.252 203.500 C 306.618 198.825,315.568 194.395,317.140 193.656 L 320.000 192.312 320.019 155.856 L 320.039 119.400 324.519 117.244 C 333.124 113.103,342.921 108.442,349.800 105.217 C 361.707 99.635,368.040 96.610,372.200 94.518 C 373.960 93.633,375.531 92.884,375.691 92.854 C 375.851 92.824,375.988 139.868,375.995 197.396 M372.000 95.278 C 370.570 95.955,367.510 97.415,365.200 98.523 C 361.153 100.465,356.974 102.441,350.200 105.617 C 343.579 108.721,337.143 111.783,324.911 117.648 L 320.421 119.800 320.411 156.258 L 320.400 192.715 317.139 194.258 C 315.346 195.106,306.409 199.535,297.279 204.100 C 282.345 211.567,280.478 212.400,278.686 212.400 L 276.694 212.400 276.944 203.900 C 277.366 189.542,277.729 140.000,277.413 140.000 C 277.248 140.000,275.919 140.623,274.457 141.383 C 272.996 142.144,270.270 143.470,268.400 144.330 C 264.319 146.206,257.866 149.247,251.600 152.248 C 242.971 156.381,239.002 158.262,235.600 159.831 C 233.730 160.694,232.140 161.535,232.067 161.700 C 231.993 161.865,231.696 162.000,231.405 162.000 C 231.115 162.000,229.285 162.749,227.338 163.665 C 225.392 164.581,222.090 166.131,220.000 167.110 C 217.910 168.089,215.256 169.364,214.101 169.945 L 212.003 171.000 212.001 275.325 L 212.000 379.650 213.900 378.675 C 216.361 377.412,224.063 373.754,228.400 371.788 C 230.270 370.941,231.860 370.102,231.933 369.924 C 232.007 369.746,232.304 369.600,232.595 369.600 C 232.885 369.600,234.715 368.849,236.662 367.930 C 243.417 364.742,248.236 362.444,254.907 359.231 C 258.596 357.454,261.688 356.000,261.779 356.000 C 261.869 356.000,264.431 354.815,267.472 353.366 C 270.512 351.918,274.260 350.137,275.800 349.409 C 277.340 348.681,280.490 347.182,282.800 346.077 C 285.110 344.973,289.430 342.908,292.400 341.489 C 295.370 340.070,298.250 338.771,298.800 338.601 C 299.350 338.431,299.890 338.164,300.000 338.006 C 300.110 337.849,301.730 337.047,303.600 336.224 C 305.470 335.401,308.710 333.912,310.800 332.915 C 312.890 331.919,316.310 330.287,318.400 329.289 C 323.589 326.812,329.363 324.067,334.500 321.636 C 336.865 320.516,340.735 318.681,343.100 317.559 C 345.465 316.436,348.840 314.842,350.600 314.017 C 356.610 311.200,361.398 308.926,366.000 306.705 C 368.530 305.485,371.624 304.061,372.875 303.543 C 374.316 302.946,375.231 302.306,375.370 301.800 C 376.084 299.193,375.564 93.953,374.843 94.024 C 374.709 94.037,373.430 94.602,372.000 95.278 M154.000 129.800 C 154.550 130.114,155.180 130.372,155.400 130.372 C 155.620 130.372,155.350 130.114,154.800 129.800 C 154.250 129.486,153.620 129.228,153.400 129.228 C 153.180 129.228,153.450 129.486,154.000 129.800 M279.364 150.600 C 279.363 154.340,279.423 155.924,279.497 154.120 C 279.571 152.315,279.572 149.255,279.498 147.320 C 279.425 145.384,279.364 146.860,279.364 150.600 M318.983 174.600 C 318.983 183.840,319.036 187.563,319.100 182.873 C 319.164 178.183,319.164 170.623,319.099 166.073 C 319.035 161.523,318.983 165.360,318.983 174.600 M278.969 182.000 C 278.969 186.510,279.027 188.355,279.098 186.100 C 279.170 183.845,279.170 180.155,279.098 177.900 C 279.027 175.645,278.969 177.490,278.969 182.000 M278.531 208.200 C 278.533 209.740,278.605 210.321,278.692 209.491 C 278.779 208.661,278.777 207.401,278.689 206.691 C 278.600 205.981,278.529 206.660,278.531 208.200 M25.600 305.400 C 26.150 305.714,26.780 305.972,27.000 305.972 C 27.220 305.972,26.950 305.714,26.400 305.400 C 25.850 305.086,25.220 304.828,25.000 304.828 C 24.780 304.828,25.050 305.086,25.600 305.400 M118.000 361.400 C 118.550 361.714,119.180 361.972,119.400 361.972 C 119.620 361.972,119.350 361.714,118.800 361.400 C 118.250 361.086,117.620 360.828,117.400 360.828 C 117.180 360.828,117.450 361.086,118.000 361.400 M246.000 377.800 C 245.010 378.330,244.380 378.764,244.600 378.764 C 244.820 378.764,245.810 378.330,246.800 377.800 C 247.790 377.270,248.420 376.836,248.200 376.836 C 247.980 376.836,246.990 377.270,246.000 377.800 M162.000 382.200 C 162.550 382.514,163.180 382.772,163.400 382.772 C 163.620 382.772,163.350 382.514,162.800 382.200 C 162.250 381.886,161.620 381.628,161.400 381.628 C 161.180 381.628,161.450 381.886,162.000 382.200 " stroke="none" fill="#4444e4" fill-rule="evenodd"></path></g></svg></svg></g></svg>